<?xml version="1.0" standalone="no"?>
<!DOCTYPE svg PUBLIC "-//W3C//DTD SVG 20010904//EN"
 "http://www.w3.org/TR/2001/REC-SVG-20010904/DTD/svg10.dtd">
<svg version="1.0" xmlns="http://www.w3.org/2000/svg"
 width="700.000000pt" height="700.000000pt" viewBox="0 0 700.000000 700.000000"
 preserveAspectRatio="xMidYMid meet">
<metadata>
Created by potrace 1.14, written by Peter Selinger 2001-2017
</metadata>
<g transform="translate(0.000000,700.000000) scale(0.100000,-0.100000)"
fill="#000000" stroke="none">
<path d="M3167 6504 c-1 -1 -60 -5 -132 -8 -71 -4 -143 -9 -160 -12 -16 -2
-48 -6 -70 -8 -118 -12 -427 -80 -515 -113 -8 -3 -19 -7 -25 -9 -119 -29 -449
-176 -610 -271 -64 -38 -257 -163 -265 -173 -3 -3 -32 -25 -65 -50 -143 -106
-325 -279 -456 -431 -111 -129 -123 -144 -208 -269 -262 -386 -420 -771 -501
-1221 -11 -64 -23 -136 -25 -160 -2 -24 -7 -71 -11 -104 -9 -84 -12 -425 -3
-499 4 -33 10 -90 13 -126 8 -79 14 -121 21 -158 3 -15 10 -52 15 -82 50 -290
203 -693 376 -987 328 -559 850 -1014 1464 -1276 447 -190 952 -271 1450 -233
103 8 108 8 223 26 451 68 871 233 1262 493 50 33 92 63 95 67 3 3 25 20 50
37 113 77 351 302 479 453 109 129 181 224 181 239 0 5 3 11 8 13 11 5 63 83
121 183 29 50 56 97 61 105 12 20 77 155 101 207 10 24 29 64 40 90 58 129
164 496 184 640 3 21 8 49 10 63 3 14 7 48 11 75 3 28 8 59 11 70 9 37 11 549
2 625 -8 75 -26 203 -35 250 -2 14 -7 39 -9 55 -5 25 -27 114 -69 279 -3 10
-21 64 -40 120 -105 307 -259 598 -453 856 -81 107 -103 134 -193 234 -308
338 -738 636 -1145 790 -38 15 -79 31 -90 36 -61 27 -336 104 -415 116 -19 3
-37 7 -40 9 -3 2 -26 6 -50 10 -25 3 -70 10 -100 15 -111 19 -479 44 -493 34z"/>
</g>
</svg>
