<svg width="33" height="32" viewBox="0 0 33 32" fill="none" xmlns="http://www.w3.org/2000/svg">
<path d="M28.3486 9H11.3486C11.0834 9 10.8291 8.89464 10.6415 8.70711C10.454 8.51957 10.3486 8.26522 10.3486 8C10.3486 7.73478 10.454 7.48043 10.6415 7.29289C10.8291 7.10536 11.0834 7 11.3486 7H28.3486C28.6138 7 28.8682 7.10536 29.0557 7.29289C29.2433 7.48043 29.3486 7.73478 29.3486 8C29.3486 8.26522 29.2433 8.51957 29.0557 8.70711C28.8682 8.89464 28.6138 9 28.3486 9Z" fill="#333333"/>
<path d="M7.34863 9H4.34863C4.08342 9 3.82906 8.89464 3.64153 8.70711C3.45399 8.51957 3.34863 8.26522 3.34863 8C3.34863 7.73478 3.45399 7.48043 3.64153 7.29289C3.82906 7.10536 4.08342 7 4.34863 7H7.34863C7.61385 7 7.8682 7.10536 8.05574 7.29289C8.24328 7.48043 8.34863 7.73478 8.34863 8C8.34863 8.26522 8.24328 8.51957 8.05574 8.70711C7.8682 8.89464 7.61385 9 7.34863 9Z" fill="#333333"/>
<path d="M21.3486 17H4.34863C4.08342 17 3.82906 16.8946 3.64153 16.7071C3.45399 16.5196 3.34863 16.2652 3.34863 16C3.34863 15.7348 3.45399 15.4804 3.64153 15.2929C3.82906 15.1054 4.08342 15 4.34863 15H21.3486C21.6138 15 21.8682 15.1054 22.0557 15.2929C22.2433 15.4804 22.3486 15.7348 22.3486 16C22.3486 16.2652 22.2433 16.5196 22.0557 16.7071C21.8682 16.8946 21.6138 17 21.3486 17Z" fill="#333333"/>
<path d="M11.3486 25H4.34863C4.08342 25 3.82906 24.8946 3.64153 24.7071C3.45399 24.5196 3.34863 24.2652 3.34863 24C3.34863 23.7348 3.45399 23.4804 3.64153 23.2929C3.82906 23.1054 4.08342 23 4.34863 23H11.3486C11.6138 23 11.8682 23.1054 12.0557 23.2929C12.2433 23.4804 12.3486 23.7348 12.3486 24C12.3486 24.2652 12.2433 24.5196 12.0557 24.7071C11.8682 24.8946 11.6138 25 11.3486 25Z" fill="#333333"/>
<path d="M9.34863 11C8.75529 11 8.17527 10.8241 7.68192 10.4944C7.18858 10.1648 6.80406 9.69623 6.577 9.14805C6.34993 8.59987 6.29052 7.99667 6.40628 7.41473C6.52203 6.83279 6.80776 6.29824 7.22731 5.87868C7.64687 5.45912 8.18142 5.1734 8.76336 5.05765C9.34531 4.94189 9.94851 5.0013 10.4967 5.22836C11.0449 5.45543 11.5134 5.83994 11.843 6.33329C12.1727 6.82664 12.3486 7.40666 12.3486 8C12.3486 8.79565 12.0326 9.55871 11.47 10.1213C10.9073 10.6839 10.1443 11 9.34863 11ZM9.34863 7C9.15085 7 8.95751 7.05865 8.79306 7.16853C8.62861 7.27841 8.50044 7.43459 8.42475 7.61732C8.34907 7.80004 8.32926 8.00111 8.36785 8.19509C8.40643 8.38907 8.50167 8.56726 8.64153 8.70711C8.78138 8.84696 8.95956 8.9422 9.15354 8.98079C9.34752 9.01937 9.54859 8.99957 9.73132 8.92388C9.91404 8.84819 10.0702 8.72002 10.1801 8.55557C10.29 8.39112 10.3486 8.19778 10.3486 8C10.3486 7.73478 10.2433 7.48043 10.0557 7.29289C9.8682 7.10536 9.61385 7 9.34863 7Z" fill="#333333"/>
<path d="M23.3486 19C22.7553 19 22.1753 18.8241 21.6819 18.4944C21.1886 18.1648 20.8041 17.6962 20.577 17.1481C20.3499 16.5999 20.2905 15.9967 20.4063 15.4147C20.522 14.8328 20.8078 14.2982 21.2273 13.8787C21.6469 13.4591 22.1814 13.1734 22.7634 13.0576C23.3453 12.9419 23.9485 13.0013 24.4967 13.2284C25.0449 13.4554 25.5134 13.8399 25.843 14.3333C26.1727 14.8266 26.3486 15.4067 26.3486 16C26.3486 16.7957 26.0326 17.5587 25.47 18.1213C24.9073 18.6839 24.1443 19 23.3486 19ZM23.3486 15C23.1509 15 22.9575 15.0587 22.7931 15.1685C22.6286 15.2784 22.5004 15.4346 22.4248 15.6173C22.3491 15.8 22.3293 16.0011 22.3678 16.1951C22.4064 16.3891 22.5017 16.5673 22.6415 16.7071C22.7814 16.847 22.9596 16.9422 23.1535 16.9808C23.3475 17.0194 23.5486 16.9996 23.7313 16.9239C23.914 16.8482 24.0702 16.72 24.1801 16.5556C24.29 16.3911 24.3486 16.1978 24.3486 16C24.3486 15.7348 24.2433 15.4804 24.0557 15.2929C23.8682 15.1054 23.6139 15 23.3486 15Z" fill="#333333"/>
<path d="M13.3486 27C12.7553 27 12.1753 26.8241 11.6819 26.4944C11.1886 26.1648 10.8041 25.6962 10.577 25.1481C10.3499 24.5999 10.2905 23.9967 10.4063 23.4147C10.522 22.8328 10.8078 22.2982 11.2273 21.8787C11.6469 21.4591 12.1814 21.1734 12.7634 21.0576C13.3453 20.9419 13.9485 21.0013 14.4967 21.2284C15.0449 21.4554 15.5134 21.8399 15.843 22.3333C16.1727 22.8266 16.3486 23.4067 16.3486 24C16.3486 24.7957 16.0326 25.5587 15.47 26.1213C14.9073 26.6839 14.1443 27 13.3486 27ZM13.3486 23C13.1509 23 12.9575 23.0586 12.7931 23.1685C12.6286 23.2784 12.5004 23.4346 12.4248 23.6173C12.3491 23.8 12.3293 24.0011 12.3678 24.1951C12.4064 24.3891 12.5017 24.5673 12.6415 24.7071C12.7814 24.847 12.9596 24.9422 13.1535 24.9808C13.3475 25.0194 13.5486 24.9996 13.7313 24.9239C13.914 24.8482 14.0702 24.72 14.1801 24.5556C14.29 24.3911 14.3486 24.1978 14.3486 24C14.3486 23.7348 14.2433 23.4804 14.0557 23.2929C13.8682 23.1054 13.6139 23 13.3486 23Z" fill="#333333"/>
<path d="M28.3486 17H25.3486C25.0834 17 24.8291 16.8946 24.6415 16.7071C24.454 16.5196 24.3486 16.2652 24.3486 16C24.3486 15.7348 24.454 15.4804 24.6415 15.2929C24.8291 15.1054 25.0834 15 25.3486 15H28.3486C28.6138 15 28.8682 15.1054 29.0557 15.2929C29.2433 15.4804 29.3486 15.7348 29.3486 16C29.3486 16.2652 29.2433 16.5196 29.0557 16.7071C28.8682 16.8946 28.6138 17 28.3486 17Z" fill="#333333"/>
<path d="M28.3486 25H15.3486C15.0834 25 14.8291 24.8946 14.6415 24.7071C14.454 24.5196 14.3486 24.2652 14.3486 24C14.3486 23.7348 14.454 23.4804 14.6415 23.2929C14.8291 23.1054 15.0834 23 15.3486 23H28.3486C28.6138 23 28.8682 23.1054 29.0557 23.2929C29.2433 23.4804 29.3486 23.7348 29.3486 24C29.3486 24.2652 29.2433 24.5196 29.0557 24.7071C28.8682 24.8946 28.6138 25 28.3486 25Z" fill="#333333"/>
</svg>
