<svg width="24" height="24" viewBox="0 0 24 24" fill="none" xmlns="http://www.w3.org/2000/svg">
<path fill-rule="evenodd" clip-rule="evenodd" d="M10.2113 17.4469C10.1975 17.4301 10.1842 17.4137 10.172 17.3982C9.76047 16.8821 9.40809 16.3165 9.09001 15.7455C8.90746 15.4168 8.52908 15.245 8.17505 15.0581C7.19481 14.5416 6.21346 14.0338 5.34828 13.3059C4.62915 12.7013 3.90282 12.1133 3.06143 11.6731C2.46676 11.3623 1.84996 11.1108 1.23482 10.8064C0.974268 10.6775 0.641253 10.4684 0.84759 10.2741C0.958779 10.17 1.13027 10.272 1.28074 10.3381C1.51252 10.4395 1.73656 10.5549 1.97055 10.655C1.99711 10.6657 2.29195 10.7683 2.55803 10.8201C2.99892 10.906 3.44146 10.9059 3.87737 11.0549C3.88678 11.0582 3.89674 11.0613 3.90669 11.0644C3.94763 11.0769 3.99409 11.1669 4.01954 10.9766C4.06213 10.6547 4.10528 10.3354 4.05383 10.0316C3.94264 9.37704 3.6738 8.75106 3.40661 8.17138L3.37564 8.09852C3.34355 7.92975 3.54768 7.80622 3.6998 7.96255C4.26682 8.54467 4.56387 9.40697 5.26697 9.77534C5.39199 9.84072 5.49377 9.89604 5.60054 9.93764C5.60054 9.93764 5.71283 9.62731 5.78308 9.43391C5.90755 9.07545 5.75155 8.65713 5.56956 8.27654C5.39088 7.90364 5.15135 7.55065 4.82608 7.3047C4.82608 7.3047 4.55779 7.19976 4.50689 7.0795C4.47979 7.01555 4.48587 6.99486 4.49085 6.96554C4.49859 6.91786 4.54561 6.85955 4.54561 6.85955C4.57438 6.8346 4.57826 6.82669 4.63911 6.80855C4.63911 6.80855 4.71268 6.7914 4.83825 6.85773C4.91072 6.89595 5.00642 6.96134 5.00642 6.96134C5.25037 7.08962 5.52364 7.24767 5.75542 7.13355C6.09895 6.96427 6.19852 6.53301 6.29478 6.18389C6.40044 5.79982 6.4884 5.41463 6.46461 5.02525C6.42699 4.4148 6.24113 3.82395 6.13491 3.21705C6.04641 2.71254 6.01985 1.99141 6.50997 2.08971C6.77384 2.1426 6.92707 2.39413 7.07587 2.59162C7.7928 3.54619 8.17671 4.78544 9.2355 5.41906C9.57017 5.61964 9.95132 5.75921 10.3363 5.79185C10.6666 5.81984 10.8619 5.38454 11.0173 4.98309C11.285 4.29327 11.2231 3.52053 11.0903 2.76012C11.0284 2.40525 11.0239 2.04745 11.1047 1.6902C11.1506 1.48901 10.6655 1.14808 11.4355 1.3334C11.7215 1.40221 11.9035 1.65413 12.0634 1.87065C12.2974 2.18746 12.4932 2.52535 12.7001 2.86096C12.9606 3.28183 13.3429 3.62652 13.8291 3.75668C13.8402 3.75972 13.8518 3.76265 13.8629 3.76548C13.9492 3.78738 13.8789 3.77018 13.8878 3.77068C14.0001 3.77687 13.9005 3.78202 13.963 3.75082C14.2728 3.59698 14.4282 3.20255 14.6473 2.91855C15.1844 2.22308 15.9401 1.71814 16.5248 1.10028C16.8113 0.797249 17.0121 0.346846 17.3844 0.318633L17.4348 0.213196L17.6732 0.321399C17.6627 0.345407 17.6522 0.369415 17.6422 0.393479C17.2318 1.35281 17 2.398 16.8965 3.44828C16.8235 4.18888 16.8678 5.02912 17.5355 5.4413C18.1694 5.83251 18.9577 5.91023 19.7227 6.03016C19.7482 6.03409 19.7875 6.04029 19.7919 6.04106C19.7963 6.04161 19.7969 6.04167 19.8018 6.04217C20.0613 6.06551 20.3252 6.04648 20.5852 6.09726C20.7439 6.12835 20.942 6.23855 20.8938 6.4461C20.8424 6.66699 20.526 6.55431 20.2311 6.65554C20.0818 6.70704 19.4589 6.94596 19.1801 7.04769C18.7154 7.21852 18.0283 7.40942 17.8353 7.85877C17.7401 8.08016 17.7473 8.54788 17.8895 8.72639C18.1086 9.0006 18.602 9.16899 18.9638 9.23808C19.5905 9.3579 20.162 9.2731 20.7411 9.50201C20.9729 9.59345 21.4426 9.63876 21.3148 9.93084C21.2988 9.96746 21.2761 10.0008 21.2479 10.0292C21.1455 10.1332 20.2621 10.1914 20.0458 10.2838C19.6602 10.448 19.2785 10.651 18.9577 10.9327C18.8498 11.0274 18.7774 11.322 18.8089 11.4677C18.8089 11.4677 19.1895 11.8067 19.4301 11.9163C20.152 12.2431 21.2716 12.6291 22.0273 12.8681C22.0273 12.8681 23.1276 12.9138 23.3217 12.9498C23.5485 12.9918 22.8991 13.4688 22.6369 13.556C22.6369 13.556 22.3072 13.6871 22.0267 13.7656C21.5206 13.9069 20.2698 13.7263 19.9916 14.4909C19.7537 15.1428 20.3965 16.2703 21.5245 16.6642C21.6379 16.7037 21.5145 16.7331 21.4719 16.7946C21.3535 16.9658 21.1013 16.9525 20.8534 16.8962C20.74 16.871 20.7301 16.8835 20.6936 16.8852C20.4114 16.898 20.0901 16.9036 19.8948 17.0959C19.7913 17.1972 19.8079 17.2626 19.8079 17.342C19.8063 17.8869 20.22 18.4033 20.6028 18.7947C20.7456 18.9407 20.8988 19.0808 21.0797 19.1718L21.1295 19.1997C21.2728 19.3218 20.4817 19.245 20.313 19.1436C19.6674 18.7565 18.4465 18.2427 17.0359 17.775C16.0308 17.4431 14.7435 17.0321 13.7517 16.7028C13.3368 16.565 12.8638 16.5671 12.4755 16.8147C11.8991 17.1822 11.2718 17.4756 10.6273 17.6682C10.6185 17.6708 10.6096 17.6729 10.6013 17.6744C9.91094 19.1216 7.8968 23.2595 7.32536 23.3981C7.15664 23.4391 6.86954 23.2741 7.30821 22.7948C8.29786 21.7137 9.05572 20.0998 9.64486 18.7577C9.83626 18.3217 10.0249 17.8848 10.2113 17.4469ZM20.1813 16.2502C18.3409 15.8311 16.5989 15.3561 14.6141 15.3323C14.077 15.3258 13.5299 15.2873 12.9899 15.3138C12.5386 15.3359 12.1314 15.3196 11.6778 15.3576C11.4615 15.8275 11.103 16.6132 10.8829 17.0813L10.8431 17.1664C11.0278 17.0868 11.2806 16.9754 11.5113 16.8657C12.0755 16.5974 12.5706 16.1986 13.1653 16.187C13.1814 16.1868 13.1968 16.1868 13.2129 16.1869C13.9514 16.1984 14.6329 16.636 15.3283 16.8865C16.5287 17.3191 17.7717 17.6489 18.9278 18.1804L19.7797 18.5738C19.7692 18.5588 19.0932 17.3737 19.4301 16.8558C19.611 16.5777 19.9645 16.4616 20.3235 16.4C20.3235 16.4 20.2532 16.3319 20.1813 16.2502ZM6.56584 3.29859C6.62835 3.65904 6.73235 4.01823 6.79652 4.38388C6.88945 4.9119 6.90881 5.45524 6.76443 5.98032C6.58907 6.62876 6.42312 7.38729 5.76041 7.54655C5.69181 7.56304 5.58782 7.56326 5.58782 7.56326C5.59777 7.57737 5.60773 7.59158 5.61768 7.60586C6.02317 8.19804 6.35397 8.96393 6.12662 9.56883C6.01874 9.85561 5.99329 10.2486 5.70674 10.3124C5.49543 10.3593 5.30403 10.1974 5.14305 10.1191C4.75251 9.92376 4.44383 9.57979 4.19545 9.22132L4.17332 9.18946C4.33928 9.67239 4.50081 10.1773 4.38354 10.6792C4.32766 10.9176 4.40289 11.2054 4.16613 11.3649C4.00571 11.4727 3.77946 11.3575 3.59137 11.32C3.35738 11.2733 3.11896 11.2434 2.88164 11.2097C2.88164 11.2097 3.09185 11.3158 3.2556 11.4019C4.11635 11.8554 4.87697 12.4722 5.63207 13.099C5.65309 13.1164 5.67411 13.1338 5.69513 13.1512C6.20295 13.5673 6.76941 13.9089 7.34029 14.2396C7.94492 14.5874 8.6436 14.8004 9.16912 15.2645C9.39924 15.4678 9.52315 15.7593 9.69187 16.0259C9.91204 16.3743 10.2307 16.9467 10.4874 17.2635C10.6904 16.7835 11.0831 15.8244 11.2828 15.3425C11.4715 15.4272 9.43741 13.3679 8.55232 12.4493C7.78229 11.6501 6.91545 10.9215 5.95678 10.3006L5.93023 10.2833C5.93023 10.2833 6.01321 10.1822 6.02317 10.1871C7.01503 10.6966 7.87854 11.4328 8.72657 12.1721C9.31627 12.6861 9.83072 13.2976 10.3297 13.9043C10.6201 14.2574 11.118 14.7194 11.389 15.1179C11.389 15.1179 12.0462 13.5949 12.216 13.1805C12.1995 13.1499 11.7077 12.5196 11.5157 12.2472C10.9941 11.5079 10.4337 11.2025 9.9314 10.4506C9.17354 9.31509 8.54568 8.07761 7.99139 6.83737C7.46919 5.66445 7.03107 4.48141 6.56584 3.29859ZM22.2607 13.3516C20.9945 13.1856 19.1712 12.946 17.9006 12.8418C16.9037 12.7599 16.142 12.4299 15.1363 12.6532C14.3087 12.8371 13.4779 12.9223 12.632 13.2326C12.4301 13.6896 12.0484 14.5475 11.8438 15.0028C12.6414 14.9507 13.4491 14.9543 14.2661 14.9984C16.0723 15.0958 17.8939 15.4325 19.6641 15.9461C19.7869 15.9816 19.9097 16.0186 20.032 16.0565C19.559 15.3436 19.5501 14.2717 20.3097 13.7774C20.7234 13.5081 21.7773 13.4842 22.2607 13.3516ZM20.2123 9.84709L20.0685 9.84028C18.6922 9.76958 17.312 9.70005 15.9401 9.61608L15.086 9.64053L14.0272 9.60551C13.9741 9.73966 13.921 9.87386 13.8679 10.008L13.843 10.0695C13.7622 10.2696 12.6569 12.8243 12.5928 12.9718C13.3877 12.7115 14.4155 12.3545 15.2447 12.2457C15.4837 12.2143 15.7232 12.1936 15.9655 12.1952C16.7422 12.2043 17.5178 12.3332 18.28 12.4509C19.0119 12.5639 19.741 12.6922 20.4695 12.8272L20.5287 12.8382C20.8097 12.892 21.0902 12.9468 21.3707 13.0028C21.3165 12.9851 21.2628 12.9672 21.2108 12.9498C20.8645 12.8327 20.521 12.7073 20.1819 12.5715C19.8212 12.4274 19.4683 12.2692 19.1109 12.1111C18.8128 11.9778 18.529 11.8024 18.4687 11.4662C18.4211 11.2001 18.4831 10.919 18.6551 10.6982C19.0329 10.2127 19.7321 10.1096 20.2123 9.84709ZM11.3664 1.67432C11.3498 1.90716 11.4659 2.37289 11.5146 2.61065C11.5168 2.6221 11.5168 2.62204 11.519 2.63349C11.6839 3.51665 11.7652 4.4215 11.368 5.32562C11.1462 5.82327 10.8292 6.34559 10.161 6.22439C9.97566 6.19075 9.79145 6.14473 9.61277 6.0841C9.11214 5.91449 8.66075 5.613 8.30616 5.21886C7.6451 4.48456 7.2706 3.53895 6.67316 2.77168C6.60401 2.68334 6.52214 2.54117 6.51716 2.62188C6.51329 2.68477 6.51274 2.74745 6.5144 2.80996C7.66612 5.25697 8.64083 7.80622 10.2943 10.1069C10.9028 10.9541 11.7204 11.9876 12.3007 12.8658C12.4423 12.7946 12.9263 11.4994 12.9048 11.4869C13.188 10.8127 13.2953 10.0191 13.5802 9.3469C13.5404 9.20688 13.4629 8.93361 13.3999 8.71195C13.1377 7.78896 12.9142 6.84412 12.5557 5.98126C12.5181 5.89048 12.4832 5.79926 12.4495 5.70738C12.1253 4.82483 11.8974 3.89819 11.6645 2.97453L11.6512 2.92192C11.5677 2.57928 11.4449 2.01818 11.3664 1.67432ZM16.5934 3.08545C15.9401 4.8916 15.0273 6.99774 14.3303 8.80616L14.301 8.88272C14.2374 9.04386 14.1738 9.20495 14.1107 9.36598L15.159 9.39419L15.9196 9.41864C16.6233 9.50754 17.7031 9.40979 18.4078 9.50433C17.9343 9.21485 17.1742 8.74331 17.463 7.93926C17.5498 7.69685 17.6787 7.46878 17.8712 7.29303C18.3475 6.85778 19.4622 6.64763 20.0469 6.42292C20.0469 6.42292 20.0508 6.42104 20.0762 6.41319C19.2044 6.25725 17.9653 6.14561 17.2948 5.60626C16.6559 5.09284 16.4496 4.18136 16.5519 3.3819C16.5646 3.28299 16.5784 3.18413 16.5934 3.08545ZM16.9109 1.60446C17.0016 1.28936 17.1078 0.978473 17.2318 0.673612C17.2318 0.673612 16.8766 1.14576 16.6747 1.36128C16.0634 2.01492 15.2962 2.52369 14.8066 3.2862C14.5339 3.71536 14.2263 4.23308 13.7495 4.11791C13.3202 4.0122 12.9214 3.78993 12.6354 3.45138C12.2448 2.98897 12.0075 2.41211 11.5976 1.95999C11.8919 2.79956 12.1939 3.63614 12.5181 4.46337C12.7012 4.93059 12.7432 5.53075 12.9628 5.97678C13.1919 6.55298 13.6814 8.79493 13.7063 8.79388L13.7323 8.88311C13.7462 8.93339 13.7594 8.98373 13.7733 9.03407L13.7915 8.99164C14.2125 8.01466 14.9726 6.37823 15.3913 5.40268L15.4311 5.31102C15.8084 4.44352 16.0485 3.60433 16.4208 2.73705L16.4545 2.65833C16.5497 2.43977 16.6443 2.22115 16.7389 2.00242C16.7964 1.86976 16.8539 1.73711 16.9109 1.60446ZM19.7919 6.04106L19.7913 6.04095C19.7924 6.04117 19.793 6.04117 19.7919 6.04106Z" fill="#FFAE1A"/>
</svg>
